<svg width="24" height="24" viewBox="0 0 24 24" fill="none" xmlns="http://www.w3.org/2000/svg">
<path fill-rule="evenodd" clip-rule="evenodd" d="M9 3C9 1.34315 10.3431 0 12 0C13.6569 0 15 1.34315 15 3V14.4411C16.3589 15.3889 17.25 16.965 17.25 18.75C17.25 21.6495 14.8995 24 12 24C9.10051 24 6.75 21.6495 6.75 18.75C6.75 16.965 7.64113 15.3889 9 14.4411V3ZM12 1.5C11.1716 1.5 10.5 2.17157 10.5 3V14.852C10.5 15.1197 10.3573 15.3672 10.1255 15.5012C9.00271 16.1507 8.25 17.3629 8.25 18.75C8.25 20.8211 9.92893 22.5 12 22.5C14.0711 22.5 15.75 20.8211 15.75 18.75C15.75 17.3629 14.9973 16.1507 13.8745 15.5012C13.6427 15.3672 13.5 15.1197 13.5 14.852V3C13.5 2.17157 12.8284 1.5 12 1.5Z" fill="#616161"/>
<path d="M12.375 3C12.375 2.79289 12.2071 2.625 12 2.625C11.7929 2.625 11.625 2.79289 11.625 3V16.5311C11.747 16.5107 11.8722 16.5 12 16.5C12.1278 16.5 12.253 16.5107 12.375 16.5311V3Z" fill="#616161"/>
<path d="M14.25 18.75C14.25 19.9926 13.2426 21 12 21C10.7574 21 9.75 19.9926 9.75 18.75C9.75 17.5074 10.7574 16.5 12 16.5C13.2426 16.5 14.25 17.5074 14.25 18.75Z" fill="#616161"/>
</svg>
