<svg width="24" height="24" viewBox="0 0 24 24" fill="none" xmlns="http://www.w3.org/2000/svg">
<path fill-rule="evenodd" clip-rule="evenodd" d="M15 11C12.7909 11 11 9.20914 11 7C11 4.79086 12.7909 3 15 3C17.2091 3 19 4.79086 19 7C19 9.20914 17.2091 11 15 11ZM15 9C13.8954 9 13 8.10457 13 7C13 5.89543 13.8954 5 15 5C16.1046 5 17 5.89543 17 7C17 8.10457 16.1046 9 15 9Z" fill="#818181"/>
<path d="M11 14C10.4477 14 10 14.4477 10 15V21H8V15C8 13.3431 9.34315 12 11 12H19C20.6569 12 22 13.3431 22 15V21H20V15C20 14.4477 19.5523 14 19 14H11Z" fill="#818181"/>
<path d="M1 11H7V13H1V11Z" fill="#818181"/>
<path d="M6 15H1V17H6V15Z" fill="#818181"/>
<path d="M1 7H8V9H1V7Z" fill="#818181"/>
</svg>
