<svg width="24" height="24" viewBox="0 0 24 24" fill="none" xmlns="http://www.w3.org/2000/svg">
<path fill-rule="evenodd" clip-rule="evenodd" d="M4.57538 4.57525C0.474874 8.67576 0.474874 15.324 4.57538 19.4245C4.86827 19.7174 4.86827 20.1923 4.57538 20.4852C4.28249 20.778 3.80761 20.778 3.51472 20.4852C-1.17157 15.7989 -1.17157 8.20088 3.51472 3.51459C3.80761 3.2217 4.28249 3.2217 4.57538 3.51459C4.86827 3.80749 4.86827 4.28236 4.57538 4.57525ZM7.75736 7.75723C5.41421 10.1004 5.41421 13.8994 7.75736 16.2425C8.05025 16.5354 8.05025 17.0103 7.75736 17.3032C7.46447 17.5961 6.98959 17.5961 6.6967 17.3032C3.76777 14.3742 3.76777 9.6255 6.6967 6.69657C6.98959 6.40368 7.46447 6.40368 7.75736 6.69657C8.05025 6.98947 8.05025 7.46434 7.75736 7.75723ZM16.2426 6.69657C16.5355 6.40368 17.0104 6.40368 17.3033 6.69657C20.2322 9.6255 20.2322 14.3742 17.3033 17.3032C17.0104 17.5961 16.5355 17.5961 16.2426 17.3032C15.9497 17.0103 15.9497 16.5354 16.2426 16.2425C18.5858 13.8994 18.5858 10.1004 16.2426 7.75723C15.9497 7.46434 15.9497 6.98946 16.2426 6.69657ZM19.4246 3.51459C19.7175 3.2217 20.1924 3.2217 20.4853 3.51459C25.1716 8.20088 25.1716 15.7989 20.4853 20.4852C20.1924 20.778 19.7175 20.778 19.4246 20.4852C19.1317 20.1923 19.1317 19.7174 19.4246 19.4245C23.5251 15.324 23.5251 8.67576 19.4246 4.57525C19.1317 4.28236 19.1317 3.80748 19.4246 3.51459Z" fill="#616161"/>
<path fill-rule="evenodd" clip-rule="evenodd" d="M9.00013 11.9999C9.00013 10.343 10.3433 8.99987 12.0001 8.99987C13.657 8.99987 15.0001 10.343 15.0001 11.9999C15.0001 13.3977 14.0441 14.5723 12.7501 14.9054V23.2499C12.7501 23.6641 12.4143 23.9999 12.0001 23.9999C11.5859 23.9999 11.2501 23.6641 11.2501 23.2499V14.9054C9.95621 14.5723 9.00013 13.3977 9.00013 11.9999Z" fill="#616161"/>
</svg>
