<svg width="24" height="24" viewBox="0 0 24 24" fill="none" xmlns="http://www.w3.org/2000/svg">
<path fill-rule="evenodd" clip-rule="evenodd" d="M2.25 4.5C1.83579 4.5 1.5 4.83579 1.5 5.25V8.25H9C9.41421 8.25 9.75 8.58579 9.75 9C9.75 9.37998 9.87016 9.96665 10.2087 10.4368C10.5196 10.8686 11.0444 11.25 12 11.25C12.9556 11.25 13.4804 10.8686 13.7913 10.4368C14.1298 9.96665 14.25 9.37998 14.25 9C14.25 8.58579 14.5858 8.25 15 8.25H22.5V5.25C22.5 4.83579 22.1642 4.5 21.75 4.5H2.25ZM22.5 9.75H15.6734C15.5748 10.2501 15.3713 10.8095 15.0087 11.3132C14.4196 12.1314 13.4444 12.75 12 12.75C10.5556 12.75 9.5804 12.1314 8.99135 11.3132C8.62866 10.8095 8.42521 10.2501 8.3266 9.75H1.5V18.75C1.5 19.1642 1.83579 19.5 2.25 19.5H21.75C22.1642 19.5 22.5 19.1642 22.5 18.75V9.75ZM0 5.25C0 4.00736 1.00736 3 2.25 3H21.75C22.9926 3 24 4.00736 24 5.25V18.75C24 19.9926 22.9926 21 21.75 21H2.25C1.00736 21 0 19.9926 0 18.75V5.25Z" fill="#818181"/>
</svg>
